<mxfile host="app.diagrams.net" agent="Mozilla/5.0 (Windows NT 10.0; Win64; x64) AppleWebKit/537.36 (KHTML, like Gecko) Chrome/137.0.0.0 Safari/537.36" version="27.1.4" pages="3">
  <diagram name="Page-1" id="g2w-J4siyY8yNuK4NRVr">
    <mxGraphModel dx="786" dy="497" grid="1" gridSize="10" guides="1" tooltips="1" connect="1" arrows="1" fold="1" page="1" pageScale="1" pageWidth="850" pageHeight="1100" math="0" shadow="0">
      <root>
        <mxCell id="0" />
        <mxCell id="1" parent="0" />
        <mxCell id="Feh4IKJKRrcyVZ09UILk-1" value="" style="whiteSpace=wrap;html=1;aspect=fixed;shadow=0;" vertex="1" parent="1">
          <mxGeometry x="130" y="270" width="80" height="80" as="geometry" />
        </mxCell>
        <mxCell id="Feh4IKJKRrcyVZ09UILk-6" style="edgeStyle=orthogonalEdgeStyle;rounded=0;orthogonalLoop=1;jettySize=auto;html=1;entryX=0.5;entryY=0;entryDx=0;entryDy=0;" edge="1" parent="1" source="Feh4IKJKRrcyVZ09UILk-2" target="Feh4IKJKRrcyVZ09UILk-5">
          <mxGeometry relative="1" as="geometry" />
        </mxCell>
        <mxCell id="Feh4IKJKRrcyVZ09UILk-2" value="Main Qt Application" style="whiteSpace=wrap;html=1;aspect=fixed;" vertex="1" parent="1">
          <mxGeometry x="340" y="130" width="70" height="70" as="geometry" />
        </mxCell>
        <mxCell id="Feh4IKJKRrcyVZ09UILk-4" style="edgeStyle=orthogonalEdgeStyle;rounded=0;orthogonalLoop=1;jettySize=auto;html=1;entryX=0.6;entryY=-0.025;entryDx=0;entryDy=0;entryPerimeter=0;" edge="1" parent="1" source="Feh4IKJKRrcyVZ09UILk-2" target="Feh4IKJKRrcyVZ09UILk-1">
          <mxGeometry relative="1" as="geometry" />
        </mxCell>
        <mxCell id="Feh4IKJKRrcyVZ09UILk-14" value="" style="edgeStyle=orthogonalEdgeStyle;rounded=0;orthogonalLoop=1;jettySize=auto;html=1;" edge="1" parent="1" source="Feh4IKJKRrcyVZ09UILk-5" target="Feh4IKJKRrcyVZ09UILk-13">
          <mxGeometry relative="1" as="geometry" />
        </mxCell>
        <mxCell id="Feh4IKJKRrcyVZ09UILk-5" value="New window is created with a chart where ready for live plotting" style="whiteSpace=wrap;html=1;aspect=fixed;shadow=0;" vertex="1" parent="1">
          <mxGeometry x="490" y="320" width="90" height="90" as="geometry" />
        </mxCell>
        <mxCell id="Feh4IKJKRrcyVZ09UILk-7" value="Two main windows" style="text;html=1;align=center;verticalAlign=middle;resizable=0;points=[];autosize=1;strokeColor=none;fillColor=none;" vertex="1" parent="1">
          <mxGeometry x="315" y="50" width="120" height="30" as="geometry" />
        </mxCell>
        <mxCell id="Feh4IKJKRrcyVZ09UILk-9" value="User can add signals (csv files) and plot them" style="text;html=1;align=center;verticalAlign=middle;resizable=0;points=[];autosize=1;strokeColor=none;fillColor=none;" vertex="1" parent="1">
          <mxGeometry x="55" y="128" width="270" height="30" as="geometry" />
        </mxCell>
        <mxCell id="Feh4IKJKRrcyVZ09UILk-10" value="Live recording from an external device" style="text;html=1;align=center;verticalAlign=middle;resizable=0;points=[];autosize=1;strokeColor=none;fillColor=none;" vertex="1" parent="1">
          <mxGeometry x="450" y="120" width="230" height="30" as="geometry" />
        </mxCell>
        <mxCell id="Feh4IKJKRrcyVZ09UILk-12" value="On Live recording option - button" style="text;html=1;align=center;verticalAlign=middle;resizable=0;points=[];autosize=1;strokeColor=none;fillColor=none;" vertex="1" parent="1">
          <mxGeometry x="540" y="290" width="200" height="30" as="geometry" />
        </mxCell>
        <mxCell id="Feh4IKJKRrcyVZ09UILk-13" value="&lt;font style=&quot;font-size: 10px;&quot;&gt;connection is tried with the external device via UART or via Ethernet and data are plotting&lt;/font&gt;" style="whiteSpace=wrap;html=1;shadow=0;" vertex="1" parent="1">
          <mxGeometry x="380" y="470" width="220" height="50" as="geometry" />
        </mxCell>
        <mxCell id="Feh4IKJKRrcyVZ09UILk-15" value="Action live record" style="text;html=1;align=center;verticalAlign=middle;resizable=0;points=[];autosize=1;strokeColor=none;fillColor=none;" vertex="1" parent="1">
          <mxGeometry x="370" y="440" width="120" height="30" as="geometry" />
        </mxCell>
      </root>
    </mxGraphModel>
  </diagram>
  <diagram id="gmxzB6esy2YN2sDeY89e" name="Page-2">
    <mxGraphModel dx="786" dy="497" grid="1" gridSize="10" guides="1" tooltips="1" connect="1" arrows="1" fold="1" page="1" pageScale="1" pageWidth="850" pageHeight="1100" math="0" shadow="0">
      <root>
        <mxCell id="0" />
        <mxCell id="1" parent="0" />
        <mxCell id="R7rf-IYQGjI5xD6xhIf6-1" value="SerialCom&lt;br&gt;Gives interface for connecting to UART and on Readready gives to the user a callback function (lamda) to execute what happens with the new data" style="whiteSpace=wrap;html=1;aspect=fixed;" vertex="1" parent="1">
          <mxGeometry x="80" y="100" width="210" height="210" as="geometry" />
        </mxCell>
        <mxCell id="R7rf-IYQGjI5xD6xhIf6-3" style="edgeStyle=orthogonalEdgeStyle;rounded=0;orthogonalLoop=1;jettySize=auto;html=1;entryX=1;entryY=0.5;entryDx=0;entryDy=0;" edge="1" parent="1" source="R7rf-IYQGjI5xD6xhIf6-2" target="R7rf-IYQGjI5xD6xhIf6-1">
          <mxGeometry relative="1" as="geometry" />
        </mxCell>
        <mxCell id="R7rf-IYQGjI5xD6xhIf6-2" value="StartRecording :&amp;nbsp;&lt;br&gt;On StartRecording Action we try to connect and provide a callback function which just updates the live plotting every time new data are available on the UART" style="whiteSpace=wrap;html=1;aspect=fixed;" vertex="1" parent="1">
          <mxGeometry x="520" y="130" width="150" height="150" as="geometry" />
        </mxCell>
      </root>
    </mxGraphModel>
  </diagram>
  <diagram id="iHRSg_6oxW1gxaxMdta8" name="DAQ Workflow">
    <mxGraphModel dx="786" dy="497" grid="1" gridSize="10" guides="1" tooltips="1" connect="1" arrows="1" fold="1" page="1" pageScale="1" pageWidth="850" pageHeight="1100" math="0" shadow="0">
      <root>
        <mxCell id="0" />
        <mxCell id="1" parent="0" />
        <mxCell id="UU7EFX2uKZqhn1tSBAJ8-6" style="edgeStyle=orthogonalEdgeStyle;rounded=0;orthogonalLoop=1;jettySize=auto;html=1;entryX=0;entryY=0.5;entryDx=0;entryDy=0;" edge="1" parent="1" source="UU7EFX2uKZqhn1tSBAJ8-1" target="UU7EFX2uKZqhn1tSBAJ8-2">
          <mxGeometry relative="1" as="geometry" />
        </mxCell>
        <mxCell id="UU7EFX2uKZqhn1tSBAJ8-1" value="Host" style="whiteSpace=wrap;html=1;aspect=fixed;" vertex="1" parent="1">
          <mxGeometry x="230" y="30" width="80" height="80" as="geometry" />
        </mxCell>
        <mxCell id="UU7EFX2uKZqhn1tSBAJ8-2" value="Slave/Micro&lt;div&gt;&lt;br&gt;&lt;/div&gt;" style="whiteSpace=wrap;html=1;aspect=fixed;" vertex="1" parent="1">
          <mxGeometry x="630" y="25" width="90" height="90" as="geometry" />
        </mxCell>
        <mxCell id="UU7EFX2uKZqhn1tSBAJ8-4" value="Host Sends Config Command" style="text;html=1;align=center;verticalAlign=middle;resizable=0;points=[];autosize=1;strokeColor=none;fillColor=none;" vertex="1" parent="1">
          <mxGeometry x="360" y="80" width="180" height="30" as="geometry" />
        </mxCell>
        <mxCell id="UU7EFX2uKZqhn1tSBAJ8-5" value="Micro Configure" style="text;html=1;align=center;verticalAlign=middle;resizable=0;points=[];autosize=1;strokeColor=none;fillColor=none;" vertex="1" parent="1">
          <mxGeometry x="510" y="25" width="110" height="30" as="geometry" />
        </mxCell>
        <mxCell id="UU7EFX2uKZqhn1tSBAJ8-9" style="edgeStyle=orthogonalEdgeStyle;rounded=0;orthogonalLoop=1;jettySize=auto;html=1;entryX=0;entryY=0.5;entryDx=0;entryDy=0;" edge="1" parent="1" source="UU7EFX2uKZqhn1tSBAJ8-7" target="UU7EFX2uKZqhn1tSBAJ8-8">
          <mxGeometry relative="1" as="geometry" />
        </mxCell>
        <mxCell id="UU7EFX2uKZqhn1tSBAJ8-7" value="Host" style="whiteSpace=wrap;html=1;aspect=fixed;" vertex="1" parent="1">
          <mxGeometry x="230" y="150" width="80" height="80" as="geometry" />
        </mxCell>
        <mxCell id="UU7EFX2uKZqhn1tSBAJ8-8" value="Slave/Micro&lt;div&gt;&lt;br&gt;&lt;/div&gt;" style="whiteSpace=wrap;html=1;aspect=fixed;" vertex="1" parent="1">
          <mxGeometry x="630" y="145" width="90" height="90" as="geometry" />
        </mxCell>
        <mxCell id="UU7EFX2uKZqhn1tSBAJ8-10" value="Host Sends Start Command" style="text;html=1;align=center;verticalAlign=middle;resizable=0;points=[];autosize=1;strokeColor=none;fillColor=none;" vertex="1" parent="1">
          <mxGeometry x="370" y="200" width="170" height="30" as="geometry" />
        </mxCell>
      </root>
    </mxGraphModel>
  </diagram>
</mxfile>
